<svg xmlns="http://www.w3.org/2000/svg" width="1200" height="900" viewBox="0 0 1200 900" role="img" aria-labelledby="t d"><title id="t">Участок без точного замера</title><desc id="d">Демонстрационный заменяемый визуал юридического кейса</desc>
<style>.bg{fill:#10283d}.paper{fill:#fffefb}.paper2{fill:#ebe6dc}.gold{fill:#c39a5d}.white{fill:#fffefb}.ink{fill:#10283d}.line{fill:#d9d4ca}.h{font:500 42px Georgia,serif}.t{font:20px Arial,sans-serif}.b{font:700 15px Arial,sans-serif;letter-spacing:1px}</style><rect width="1200" height="900" class="bg"/><text x="70" y="72" class="b gold">ДЕМО-ВИЗУАЛ · ЗАМЕНИТЬ РЕАЛЬНЫМ ПОДТВЕРЖДЕНИЕМ</text><text x="70" y="128" class="h white">Участок без точного замера</text><text x="70" y="164" class="t white" opacity=".65">схема спорной территории и недостающих доказательств</text>
<rect x="80" y="230" width="690" height="540" rx="8" class="paper2"/><path d="M165 645 220 330 620 285 690 650Z" fill="#fffefb" stroke="#10283d" stroke-width="4" stroke-dasharray="12 10"/><rect x="300" y="430" width="210" height="125" class="bg" opacity=".9"/><text x="405" y="485" text-anchor="middle" class="b white">СПОРНАЯ</text><text x="405" y="515" text-anchor="middle" class="b white">ТЕРРИТОРИЯ</text><path d="M220 330h400" stroke="#c39a5d" stroke-width="5"/><text x="420" y="315" text-anchor="middle" class="b gold">ТОЧНЫЙ ЗАМЕР ОТСУТСТВУЕТ</text>
<rect x="820" y="260" width="300" height="450" rx="8" class="paper"/><text x="860" y="315" class="b gold">ИСТРЕБОВАТЬ</text><text x="860" y="370" class="t ink">Схему</text><rect x="860" y="390" width="210" height="10" rx="5" class="line"/><text x="860" y="455" class="t ink">Замеры</text><rect x="860" y="475" width="185" height="10" rx="5" class="line"/><text x="860" y="540" class="t ink">Методику расчёта</text><rect x="860" y="560" width="220" height="10" rx="5" class="line"/><text x="860" y="625" class="t ink">Границы участка</text><rect x="860" y="645" width="205" height="10" rx="5" class="line"/></svg>