<svg xmlns="http://www.w3.org/2000/svg" width="1200" height="900" viewBox="0 0 1200 900" role="img" aria-labelledby="t d"><title id="t">Навязанная услуга — 80 000 рублей</title><desc id="d">Демонстрационный заменяемый визуал юридического кейса</desc>
<style>.bg{fill:#10283d}.paper{fill:#fffefb}.paper2{fill:#ebe6dc}.gold{fill:#c39a5d}.white{fill:#fffefb}.muted{fill:#667681}.ink{fill:#10283d}.line{fill:#d9d4ca}.h{font:500 42px Georgia,serif}.t{font:20px Arial,sans-serif}.s{font:14px Arial,sans-serif}.b{font:700 15px Arial,sans-serif;letter-spacing:1px}</style><rect width="1200" height="900" class="bg"/><text x="70" y="72" class="b gold">ДЕМО-ВИЗУАЛ · ЗАМЕНИТЬ РЕАЛЬНЫМ ПОДТВЕРЖДЕНИЕМ</text><text x="70" y="128" class="h white">Навязанная услуга — 80 000 ₽</text><text x="70" y="164" class="t white" opacity=".65">договор → отказ → требования → текущий статус</text>
<rect x="70" y="220" width="310" height="540" rx="7" class="paper"/><rect x="100" y="255" width="190" height="15" rx="7" class="ink"/><rect x="100" y="292" width="240" height="10" rx="5" class="line"/><rect x="100" y="318" width="220" height="10" rx="5" class="line"/><text x="100" y="382" class="b gold">ДОГОВОР И СЕРТИФИКАТ</text><rect x="100" y="410" width="235" height="10" rx="5" class="line"/><rect x="100" y="437" width="210" height="10" rx="5" class="line"/><rect x="100" y="464" width="245" height="10" rx="5" class="line"/><rect x="100" y="535" width="130" height="46" rx="23" class="paper2"/><text x="165" y="564" text-anchor="middle" class="b ink">80 000 ₽</text><path d="M380 490h105" stroke="#c39a5d" stroke-width="4"/><path d="m470 478 15 12-15 12" fill="none" stroke="#c39a5d" stroke-width="4"/>
<rect x="485" y="250" width="300" height="460" rx="7" class="paper"/><text x="525" y="303" class="b gold">ПОДГОТОВЛЕНО</text><text x="525" y="355" class="t ink">Жалоба</text><rect x="525" y="375" width="220" height="10" rx="5" class="line"/><text x="525" y="435" class="t ink">Исковое заявление</text><rect x="525" y="455" width="215" height="10" rx="5" class="line"/><text x="525" y="515" class="t ink">Расчёт требований</text><rect x="525" y="535" width="205" height="10" rx="5" class="line"/><rect x="525" y="605" width="210" height="42" rx="21" class="bg"/><text x="630" y="632" text-anchor="middle" class="b white">ПОЗИЦИЯ СОБРАНА</text><path d="M785 490h105" stroke="#c39a5d" stroke-width="4"/><path d="m875 478 15 12-15 12" fill="none" stroke="#c39a5d" stroke-width="4"/>
<rect x="890" y="300" width="240" height="340" rx="7" class="paper2"/><text x="930" y="355" class="b gold">СТАТУС</text><circle cx="930" cy="410" r="10" class="gold"/><text x="958" y="417" class="t ink">Часть суммы</text><text x="958" y="445" class="t ink">перечислена</text><circle cx="930" cy="510" r="10" class="gold"/><text x="958" y="517" class="t ink">Определён</text><text x="958" y="545" class="t ink">следующий шаг</text></svg>