<svg xmlns="http://www.w3.org/2000/svg" width="900" height="1200" viewBox="0 0 900 1200" role="img" aria-labelledby="t d">
<title id="t">Досудебная претензия</title><desc id="d">Демонстрационный заменяемый макет юридического документа</desc>
<style>.bg{fill:#ebe6dc}.paper{fill:#fffefb}.ink{fill:#10283d}.muted{fill:#667681}.gold{fill:#c39a5d}.line{fill:#d9d4ca}.redact{fill:#10283d}.label{font:700 18px Arial,sans-serif;fill:#8a673b;letter-spacing:1px}.body{font:20px Arial,sans-serif;fill:#10283d}.small{font:14px Arial,sans-serif;fill:#667681}.demo{font:700 14px Arial,sans-serif;fill:#fffefb;letter-spacing:2px}</style>
<rect width="900" height="1200" class="bg"/><rect x="95" y="55" width="710" height="1090" rx="8" class="paper"/><rect x="95" y="55" width="710" height="18" class="gold"/><rect x="600" y="95" width="150" height="30" rx="15" class="ink"/><text x="675" y="116" text-anchor="middle" class="demo">ДЕМО-МАКЕТ</text>
<text x="150" y="165" class="small">В компетентный орган / суд / организации</text><rect x="150" y="185" width="410" height="14" rx="7" class="redact" opacity=".88"/><rect x="150" y="212" width="310" height="14" rx="7" class="redact" opacity=".55"/>
<text x="450" y="280" text-anchor="middle" class="body" font-weight="700">ДОСУДЕБНАЯ ПРЕТЕНЗИЯ</text><text x="450" y="312" text-anchor="middle" class="small">структура будущего реального фрагмента</text>
<text x="150" y="350" class="label">ФАКТИЧЕСКИЕ ОБСТОЯТЕЛЬСТВА</text><rect x="150" y="385" width="520" height="12" rx="6" class="line"/><rect x="150" y="410" width="480" height="12" rx="6" class="line"/><rect x="150" y="435" width="560" height="12" rx="6" class="line"/><rect x="150" y="460" width="390" height="12" rx="6" class="line"/>
<text x="150" y="510" class="label">ПРАВОВОЕ ОСНОВАНИЕ</text><rect x="150" y="545" width="500" height="12" rx="6" class="line"/><rect x="150" y="570" width="545" height="12" rx="6" class="line"/><rect x="150" y="595" width="420" height="12" rx="6" class="line"/>
<text x="150" y="645" class="label">ТРЕБОВАНИЯ И СРОК</text><rect x="150" y="680" width="555" height="12" rx="6" class="line"/><rect x="150" y="705" width="455" height="12" rx="6" class="line"/><rect x="150" y="730" width="510" height="12" rx="6" class="line"/>
<text x="150" y="780" class="label">ПРИЛОЖЕНИЯ</text><rect x="150" y="815" width="380" height="12" rx="6" class="line"/><rect x="150" y="840" width="420" height="12" rx="6" class="line"/>
<rect x="150" y="1040" width="240" height="12" rx="6" class="line"/><rect x="150" y="1068" width="180" height="12" rx="6" class="line"/><path d="M590 1045c45 30 85-10 120 18" fill="none" stroke="#c39a5d" stroke-width="5" stroke-linecap="round"/><text x="150" y="1120" class="small">Персональные данные и реквизиты скрыты</text></svg>